<svg viewBox="0 0 305 353" fill="none" xmlns="http://www.w3.org/2000/svg">
  <style>
    path { fill: black; }
    @media (prefers-color-scheme: dark) {
    path { fill: white; }
    }
  </style>
  <path d="M65.6929 345.88L0 300.5L67.6271 257.742C73.6826 253.914 81.3769 253.817 87.5269 257.492L159.5 300.5L86.6051 346.332C80.1713 350.377 71.9459 350.199 65.6929 345.88Z" />
  <path d="M170.036 281.66L0 182L82.0394 136.273C87.9035 133.005 95.0573 133.073 100.857 136.454L266.5 233L189.772 281.343C183.768 285.126 176.157 285.248 170.036 281.66Z" />
  <path d="M206.576 174.224L0 54L77.9266 6.35346C83.8323 2.74251 91.2346 2.62916 97.2482 6.05758L305 124.5L226.228 173.9C220.246 177.651 212.678 177.776 206.576 174.224Z" />
</svg>
